# xmcd
#
# Track frame offsets: 
#        150
#        7715
#        39212
#        54183
#        74831
#        101384
#        136044
#        158806
#        182815
#        201495
#        227166
#        256388
#        282111
#
# Disc length: 4048 seconds
#
# Revision: 0
# Processed by: cddbd v1.5.2PL0 Copyright (c) Steve Scherf et al.
# Submitted via: ExactAudioCopy v0.95b4
#
DISCID=a80fce0d
DTITLE=Iron Mask - Black As Death
DYEAR=2011
DGENRE=Power Metal
TTITLE0=From Light Into The Dark
TTITLE1=Black As Death
TTITLE2=Broken Hero
TTITLE3=Feel The Fire
TTITLE4=Genghis Khan
TTITLE5=God Punishes, I Kill
TTITLE6=Rebel Kid
TTITLE7=Blizzard Of Doom
TTITLE8=The Absence
TTITLE9=Magic Sky Requiem
TTITLE10=Nosferatu
TTITLE11=When All Braves Fall
TTITLE12=Evil Strikes In Silence
EXTD=
EXTT0=
EXTT1=
EXTT2=
EXTT3=
EXTT4=
EXTT5=
EXTT6=
EXTT7=
EXTT8=
EXTT9=
EXTT10=
EXTT11=
EXTT12=
PLAYORDER=
